<svg xmlns="http://www.w3.org/2000/svg" width="64" height="64" viewBox="0 0 18 18" y="550"><g fill="none" fill-rule="evenodd"><path stroke="#434A54" stroke-linecap="round" stroke-linejoin="round" stroke-width=".4" d="M12.646 14.124h-7.25a.172.172 0 0 1-.176-.168V4.393c0-.093.079-.168.176-.168h7.25c.097 0 .176.075.176.168v9.563a.172.172 0 0 1-.176.168zM5.22 5.79h7.601"/><path fill="#4DDFD2" d="M10.303 9.914c0 .678-.574 1.227-1.282 1.227-.709 0-1.283-.549-1.283-1.227s.574-1.227 1.283-1.227c.708 0 1.282.55 1.282 1.227"/><path stroke="#434A54" stroke-linecap="round" stroke-linejoin="round" stroke-width=".4" d="M10.303 9.914c0 .678-.574 1.227-1.282 1.227-.709 0-1.283-.549-1.283-1.227s.574-1.227 1.283-1.227c.708 0 1.282.55 1.282 1.227z"/><path fill="#434A54" d="M6.43 14.638h-.362a.178.178 0 0 1-.182-.174v-.109c0-.095.082-.173.182-.173h.363c.1 0 .181.078.181.173v.11a.178.178 0 0 1-.181.173m5.623.044h-.333a.193.193 0 0 1-.197-.188v-.124c0-.104.088-.188.197-.188h.333c.108 0 .196.084.196.188v.124a.193.193 0 0 1-.196.188"/></g></svg>