<svg xmlns="http://www.w3.org/2000/svg" width="60" height="60" viewBox="0 0 18 18" y="127"><g fill="none" fill-rule="evenodd"><path fill="#4DDFD2" d="M5.18 11.479h7.118V9.955H5.181z"/><path stroke="#434A54" stroke-linecap="round" stroke-linejoin="round" stroke-width=".5" d="M5.18 11.479h7.118V9.955H5.18z"/><path stroke="#434A54" stroke-linecap="round" stroke-linejoin="round" stroke-width=".5" d="M11.435 11.478v3.346h-.854l-.496-3.346m-4.176 0v3.346h.854l.497-3.346m2.848-7.405H7.371c-1.17 0-2.085.988-1.963 2.124l.517 3.758h5.629l.517-3.758c.121-1.136-.792-2.124-1.963-2.124z"/><path fill="#4DDFD2" d="M14.134 6.47a2.643 2.643 0 0 1-3.671 0 2.486 2.486 0 0 1 0-3.58 2.645 2.645 0 0 1 3.671 0 2.488 2.488 0 0 1 0 3.58"/><path stroke="#434A54" stroke-linecap="round" stroke-linejoin="round" stroke-width=".5" d="M14.134 6.47a2.643 2.643 0 0 1-3.671 0 2.486 2.486 0 0 1 0-3.58 2.645 2.645 0 0 1 3.671 0 2.488 2.488 0 0 1 0 3.58zm-1.001-.898-1.528-1.527m1.508.019-1.489 1.49"/></g></svg>