<svg xmlns="http://www.w3.org/2000/svg" width="64" height="64" viewBox="0 0 18 18" y="614"><g fill="none" fill-rule="evenodd" stroke="#434A54" stroke-width=".4"><path stroke-linecap="round" stroke-linejoin="round" d="M11.092 14.193H6.958c-.462 0-.837-.362-.837-.808V4.563c0-.447.375-.808.837-.808h4.134c.462 0 .837.361.837.808v8.822c0 .446-.375.808-.837.808z"/><path fill="#4DDFD2" d="M9.377 12.84c0 .187-.157.34-.352.34a.346.346 0 0 1-.352-.34c0-.188.157-.34.352-.34.195 0 .352.152.352.34"/><path stroke-linecap="round" stroke-linejoin="bevel" d="M8.228 3.946h1.795"/></g></svg>