<svg xmlns="http://www.w3.org/2000/svg" xmlns:xlink="http://www.w3.org/1999/xlink" width="60" height="60" viewBox="0 0 18 18" y="247"><defs><path id="a" d="M.433.154h1.84v1.791H.433z"/><path id="c" d="M.388.158h2.749v2.677H.387z"/></defs><g fill="none" fill-rule="evenodd"><path stroke="#434A54" stroke-linecap="round" stroke-linejoin="round" stroke-width=".5" d="M13.185 7.04H4.54c-.868 0-1.573.684-1.573 1.53v1.974h11.79V8.57c0-.845-.705-1.53-1.573-1.53z"/><path fill="#4DDFD2" d="M8.98 12.37v-1.003c0-.874-.728-1.582-1.626-1.582h-3.02c-.898 0-1.626.708-1.626 1.582v1.004"/><path stroke="#434A54" stroke-linecap="round" stroke-linejoin="round" stroke-width=".5" d="M8.98 12.37v-1.003c0-.874-.728-1.582-1.626-1.582h-3.02c-.898 0-1.626.708-1.626 1.582v1.004"/><path fill="#4DDFD2" d="M15.266 12.37v-1.003c0-.874-.729-1.582-1.627-1.582h-3.02c-.898 0-1.626.708-1.626 1.582v1.004"/><path stroke="#434A54" stroke-linecap="round" stroke-linejoin="round" stroke-width=".5" d="M15.266 12.37v-1.003c0-.874-.729-1.582-1.627-1.582h-3.02c-.898 0-1.626.708-1.626 1.582v1.004m6.26 4.055H2.473a.74.74 0 0 1-.75-.73v-3.288h14.28v3.288a.74.74 0 0 1-.75.73z"/><g transform="translate(14.833 3.67)"><mask id="b" fill="#fff"><use xlink:href="#a"/></mask><path fill="#434A54" d="M2.272 1.048a.003.003 0 0 1 0 .005 1.27 1.27 0 0 1-.458.242.308.308 0 0 0-.208.202v.002a1.202 1.202 0 0 1-.25.445.004.004 0 0 1-.006 0A1.223 1.223 0 0 1 1.1 1.5a.31.31 0 0 0-.209-.202 1.255 1.255 0 0 1-.457-.244.003.003 0 0 1 0-.005A1.2 1.2 0 0 1 .891.804h.003A.31.31 0 0 0 1.1.601c.05-.149.118-.299.25-.446.001-.002.004-.002.004-.002.134.15.202.3.25.447l.002.002c.03.096.107.172.206.202h.002c.152.048.306.115.458.243" mask="url(#b)"/></g><g transform="translate(10.833 1.075)"><mask id="d" fill="#fff"><use xlink:href="#c"/></mask><path fill="#434A54" d="M3.135 1.493a.006.006 0 0 1 0 .008 1.911 1.911 0 0 1-.685.363.461.461 0 0 0-.309.3v.004a1.814 1.814 0 0 1-.375.665.006.006 0 0 1-.008 0 1.827 1.827 0 0 1-.375-.665.466.466 0 0 0-.31-.303H1.07a1.889 1.889 0 0 1-.683-.364v-.008c.227-.192.455-.293.683-.364l.003-.002a.458.458 0 0 0 .31-.3V.826A1.84 1.84 0 0 1 1.757.16a.006.006 0 0 1 .008 0c.197.221.3.444.372.666l.001.003a.46.46 0 0 0 .31.3l.002.001c.228.071.458.172.685.363" mask="url(#d)"/></g></g></svg>