<svg xmlns="http://www.w3.org/2000/svg" width="64" height="64" y="678"><g fill="none" fill-rule="evenodd" stroke="#434A54" stroke-linecap="round" stroke-linejoin="round" stroke-width="1.544" transform="translate(13.534 14.324)"><path d="m28.648 7.162-1.79 14.324M6.088 9.694l2.865 8.211"/><path fill="#FFF" d="M34.271 24.313a5.388 5.388 0 0 1 3.582 5.077c0 2.974-2.873 5.385-5.848 5.385l-23.918-.07C3.528 34.14 0 30.254 0 25.543c0-5.124 4.159-9.233 9.232-9.233 2.55 0 3.022.652 14.878 4.544l10.161 3.46zM26.59 8.154a1.537 1.537 0 0 1 .03-3.076h4.616v-3.54a1.54 1.54 0 0 1 3.078 0v3.54c0 1.7-1.378 3.077-3.078 3.077H26.59z"/><circle cx="28.648" cy="28.648" r="1.791" fill="#FFF"/><path fill="#4DDFD2" d="M12.108 5.557a2.083 2.083 0 0 1-.342 4.137H2.823a2.823 2.823 0 0 1-.006-5.646c.419 0 .062-.016 9.291 1.51z"/><circle cx="9.098" cy="25.604" r="4.476" fill="#4DDFD2"/><path d="m8.953 25.067 5.73 5.372h7.161"/></g></svg>