<svg xmlns="http://www.w3.org/2000/svg" width="64" height="64" viewBox="0 0 18 18" y="742"><g fill="none" fill-rule="evenodd"><path stroke="#434A54" stroke-linecap="round" stroke-linejoin="round" stroke-width=".4" d="M12.348 5.191H5.433c-.695 0-1.259.548-1.259 1.225v1.58h9.432v-1.58c0-.677-.563-1.225-1.258-1.225z"/><path fill="#4DDFD2" d="M8.984 9.456v-.802c0-.7-.582-1.266-1.3-1.266H5.266c-.718 0-1.3.566-1.3 1.266v.802"/><path stroke="#434A54" stroke-linecap="round" stroke-linejoin="round" stroke-width=".4" d="M8.984 9.456v-.802c0-.7-.582-1.266-1.3-1.266H5.266c-.718 0-1.3.566-1.3 1.266v.802"/><path fill="#4DDFD2" d="M14.013 9.456v-.802c0-.7-.583-1.266-1.302-1.266h-2.415c-.719 0-1.302.566-1.302 1.266v.802"/><path stroke="#434A54" stroke-linecap="round" stroke-linejoin="round" stroke-width=".4" d="M14.013 9.456v-.802c0-.7-.583-1.266-1.302-1.266h-2.415c-.719 0-1.302.566-1.302 1.266v.802m5.008 3.244H3.778a.593.593 0 0 1-.6-.584v-2.63h11.425v2.63a.592.592 0 0 1-.6.585z"/></g></svg>