<svg xmlns="http://www.w3.org/2000/svg" width="60" height="60" viewBox="0 0 18 18" y="427"><g fill="none" fill-rule="evenodd"><path fill="#4DDFD2" d="M8.481 12.185H3.758a.566.566 0 0 1-.565-.569v-1.265c0-.315.253-.569.565-.569H8.48c.312 0 .565.254.565.569v1.265a.566.566 0 0 1-.565.569"/><path stroke="#434A54" stroke-linecap="round" stroke-linejoin="round" stroke-width=".4" d="M8.488 12.185H3.764a.566.566 0 0 1-.564-.569v-1.265c0-.315.253-.569.564-.569h4.724c.311 0 .564.254.564.569v1.265a.566.566 0 0 1-.564.569zm1.678-8.918c.967-.94 2.5-.928 3.417-.023.86.847.963 2.263.2 3.268"/><path stroke="#434A54" stroke-linecap="round" stroke-linejoin="round" stroke-width=".4" d="m13.334 5.727.45.785 1.005-.18m-6.587 5.853H4.037a.847.847 0 0 1-.843-.85v-9.29c0-.47.377-.85.843-.85h4.165c.466 0 .843.38.843.85v9.29c0 .469-.377.85-.843.85z"/><path fill="#434A54" d="M6.541 11.04a.423.423 0 0 1-.422.425.423.423 0 0 1-.422-.425c0-.235.19-.425.422-.425.233 0 .422.19.422.425"/><path stroke="#434A54" stroke-linecap="round" stroke-linejoin="round" stroke-width=".4" d="M3.194 9.782h5.851M3.194 2.173h5.851"/><path fill="#FFF" d="M11.55 16.975H7.385a.847.847 0 0 1-.844-.851V6.836c0-.47.378-.85.844-.85h4.165c.466 0 .843.38.843.85v9.288c0 .47-.377.85-.843.85"/><path stroke="#434A54" stroke-linecap="round" stroke-linejoin="round" stroke-width=".4" d="M11.55 16.975H7.385a.847.847 0 0 1-.844-.851V6.836c0-.47.378-.85.844-.85h4.165c.466 0 .843.38.843.85v9.288c0 .47-.377.85-.843.85z"/><path fill="#4DDFD2" stroke="#434A54" stroke-width=".3" d="M9.822 15.903a.356.356 0 0 1-.355.358.356.356 0 0 1-.354-.358c0-.197.158-.357.354-.357.196 0 .355.16.355.357"/><path stroke="#434A54" stroke-linecap="round" stroke-linejoin="bevel" stroke-width=".5" d="M8.665 6.187h1.808"/></g></svg>