<svg xmlns="http://www.w3.org/2000/svg" width="60" height="60" viewBox="0 0 18 18" y="307"><g fill="none" fill-rule="evenodd"><path fill="#FFF" d="M1.703 9.612h3.734l3.37 1.872h6.463c1.226 0 1.47 1.946.289 2.28l-6.561 1.86a1.07 1.07 0 0 1-.72-.047l-5.183-2.563H1.703V9.612z"/><path stroke="#434A54" stroke-linecap="round" stroke-linejoin="round" stroke-width=".5" d="M1.703 9.612h3.734l3.37 1.872h6.463c1.226 0 1.47 1.946.289 2.28l-6.561 1.86a1.07 1.07 0 0 1-.72-.047l-5.183-2.563H1.703V9.612z"/><path stroke="#434A54" stroke-linecap="round" stroke-linejoin="round" stroke-width=".5" d="M7.64 13.092c1.052.076 2.106.156 3.16.228.67.046 1.143-.37 1.2-.887.043-.391-.348-.864-.854-.952"/><path fill="#4DDFD2" d="M14.627 6.366a3.585 3.585 0 0 0 0-1.12l-.835-.297a2.59 2.59 0 0 0-.195-.469l.38-.794a3.566 3.566 0 0 0-.797-.794l-.798.38a2.65 2.65 0 0 0-.47-.196l-.298-.831a3.717 3.717 0 0 0-1.124 0l-.297.831a2.63 2.63 0 0 0-.471.195l-.8-.38c-.305.222-.575.49-.796.795l.38.794a2.66 2.66 0 0 0-.195.469l-.835.296a3.66 3.66 0 0 0 0 1.121l.835.294c.05.164.115.32.195.47l-.38.795c.221.305.49.571.796.794l.8-.38c.15.078.306.145.47.196l.298.831a3.7 3.7 0 0 0 1.124 0l.298-.83c.163-.052.32-.12.47-.197l.798.38c.307-.223.575-.489.797-.794l-.38-.794c.078-.15.146-.307.195-.47l.835-.295z"/><path stroke="#434A54" stroke-linecap="round" stroke-linejoin="round" stroke-width=".5" d="M14.627 6.366a3.585 3.585 0 0 0 0-1.12l-.835-.297a2.59 2.59 0 0 0-.195-.469l.38-.794a3.566 3.566 0 0 0-.797-.794l-.798.38a2.65 2.65 0 0 0-.47-.196l-.298-.831a3.717 3.717 0 0 0-1.124 0l-.297.831a2.63 2.63 0 0 0-.471.195l-.8-.38c-.305.222-.575.49-.796.795l.38.794a2.66 2.66 0 0 0-.195.469l-.835.296a3.66 3.66 0 0 0 0 1.121l.835.294c.05.164.115.32.195.47l-.38.795c.221.305.49.571.796.794l.8-.38c.15.078.306.145.47.196l.298.831a3.7 3.7 0 0 0 1.124 0l.298-.83c.163-.052.32-.12.47-.197l.798.38c.307-.223.575-.489.797-.794l-.38-.794c.078-.15.146-.307.195-.47l.835-.295z"/><path fill="#FFF" d="M12.414 5.806c0-.75-.61-1.357-1.362-1.357a1.36 1.36 0 0 0-1.363 1.357c0 .75.61 1.355 1.363 1.355.752 0 1.362-.606 1.362-1.355"/><path stroke="#434A54" stroke-linecap="round" stroke-linejoin="round" stroke-width=".5" d="M12.414 5.806c0-.75-.61-1.357-1.362-1.357a1.36 1.36 0 0 0-1.363 1.357c0 .75.61 1.355 1.363 1.355.752 0 1.362-.606 1.362-1.355z"/></g></svg>