<svg xmlns="http://www.w3.org/2000/svg" width="60" height="60" viewBox="0 0 18 18" y="367"><g fill="none" fill-rule="evenodd"><path stroke="#434A54" stroke-linecap="round" stroke-linejoin="round" stroke-width=".423" d="m15.368 11.723-4.262 4.262-4.109-4.11m.001-.001a5.705 5.705 0 1 1 8.364-.158"/><path fill="#4DDFD2" d="M14.595 7.844a3.488 3.488 0 1 1-6.977-.001 3.488 3.488 0 0 1 6.977 0"/><path stroke="#434A54" stroke-linecap="round" stroke-linejoin="round" stroke-width=".423" d="M14.595 7.844a3.488 3.488 0 1 1-6.977-.001 3.488 3.488 0 0 1 6.977 0zm-5.017 0c0-.844.685-1.528 1.528-1.528"/><path stroke="#434A54" stroke-dasharray="1.058" stroke-linecap="round" stroke-linejoin="round" stroke-width=".423" d="M11.01 15.985H4.924L2.31 14.513"/><path fill="#4DDFD2" d="M2.31 11.841a.55.55 0 1 1-1.098 0 .55.55 0 0 1 1.098 0"/><path stroke="#434A54" stroke-linecap="round" stroke-linejoin="round" stroke-width=".423" d="M2.31 11.841a.55.55 0 1 1-1.098 0 .55.55 0 0 1 1.098 0z"/><path fill="#D2D2D2" d="M1.762 14.176V12.39"/><path stroke="#434A54" stroke-linecap="round" stroke-linejoin="round" stroke-width=".423" d="M1.762 14.176V12.39"/></g></svg>