<svg xmlns="http://www.w3.org/2000/svg" width="60" height="60" viewBox="0 0 18 18" y="187"><g fill="none" fill-rule="evenodd"><path stroke="#434A54" stroke-linecap="round" stroke-linejoin="round" stroke-width=".4" d="M12.786 4.861H4.807c-.802 0-1.452.66-1.452 1.475v1.903h10.883V6.336c0-.815-.65-1.475-1.452-1.475z"/><path fill="#4DDFD2" d="M8.905 9.999v-.967c0-.843-.672-1.525-1.501-1.525H4.616c-.829 0-1.501.682-1.501 1.525v.967"/><path stroke="#434A54" stroke-linecap="round" stroke-linejoin="round" stroke-width=".4" d="M8.905 9.999v-.967c0-.843-.672-1.525-1.501-1.525H4.616c-.829 0-1.501.682-1.501 1.525v.967"/><path fill="#4DDFD2" d="M14.707 9.999v-.967c0-.843-.672-1.525-1.502-1.525H10.42c-.83 0-1.502.682-1.502 1.525v.967"/><path stroke="#434A54" stroke-linecap="round" stroke-linejoin="round" stroke-width=".4" d="M14.707 9.999v-.967c0-.843-.672-1.525-1.502-1.525H10.42c-.83 0-1.502.682-1.502 1.525v.967m5.777 3.907H2.898a.699.699 0 0 1-.693-.704v-3.167h13.183v3.167c0 .389-.31.704-.693.704zm.693-6.669c1.152-.464 1.788-1.77 1.43-3.028"/><path stroke="#434A54" stroke-linecap="round" stroke-linejoin="round" stroke-width=".4" d="m16.087 4.776.732-.568.904.571"/></g></svg>