<svg xmlns="http://www.w3.org/2000/svg" width="64" height="64" viewBox="0 0 18 18" y="1145"><g fill="none" fill-rule="evenodd"><g stroke="#434A54" stroke-linecap="round" stroke-width=".4"><path d="M10.438 6.979H5.925V4.382a.26.26 0 0 1 .26-.26h3.993a.26.26 0 0 1 .26.26V6.98z"/><path d="M10.835 7.831H5.528V7.06c0-.08.072-.145.162-.145h4.984c.09 0 .161.065.161.145v.771h0z"/></g><path d="M5.075 13.594h-.571a.08.08 0 0 1-.082-.077V8.4h.734v5.117a.08.08 0 0 1-.081.077zm.147-5.14h5.806v2.75H5.222zm5.806.251h3.36v2.445h-3.36z" stroke="#434A54" stroke-width=".4" stroke-linecap="round"/><path d="M12.867 10.08h-.317a.15.15 0 0 1-.147-.153.15.15 0 0 1 .147-.152h.317a.15.15 0 0 1 .147.152.15.15 0 0 1-.147.153z" fill="#434A54" fill-rule="nonzero"/><path d="M11.028 11.15h3.36v2.139a.306.306 0 0 1-.305.305h-2.75a.306.306 0 0 1-.305-.305v-2.14h0z" stroke="#434A54" stroke-width=".4" stroke-linecap="round"/><path d="M12.867 12.525h-.317a.15.15 0 0 1-.147-.153.15.15 0 0 1 .147-.153h.317a.15.15 0 0 1 .147.153.15.15 0 0 1-.147.153z" fill="#434A54" fill-rule="nonzero"/><path d="M14.876 8.694H4.109a.106.106 0 0 1-.106-.106v-.737c0-.058.047-.106.106-.106h10.767c.058 0 .105.048.105.106v.737a.106.106 0 0 1-.105.106z" stroke="#434A54" stroke-width=".4" fill="#4DDFD2"/></g></svg>