<svg xmlns="http://www.w3.org/2000/svg" width="26" height="27" y="50"><g fill="none" fill-rule="evenodd" stroke="#313131" stroke-linecap="round" stroke-linejoin="round" stroke-width=".591"><path d="m21.236 8.073-1.887 5.277a1.687 1.687 0 0 1-1.597 1.1H7.239l-.053.008-1.043-6.38.033-.005h15.061z"/><path fill="#E2EAF0" d="M18.226 22.043a1.496 1.496 0 1 1-2.991 0 1.496 1.496 0 0 1 2.991 0h0zm-6.731 0a1.496 1.496 0 1 1-2.991 0 1.496 1.496 0 0 1 2.99 0h0z"/><path d="M2.889 5.333h1.664a1.3 1.3 0 0 1 1.286 1.104l1.65 10.792a1.3 1.3 0 0 0 1.282 1.104h10.403"/></g></svg>